<?xml version="1.0" encoding="UTF-8"?>
<svg id="Ebene_1" xmlns="http://www.w3.org/2000/svg" viewBox="0 0 1000 549.5">
    <path
        d="M379.48,510.66c22.53,4.24,45.06,6.49,67.2,6.49,27.52,0,52.62-3.47,74.96-9.93l6.72,13.44c-26.22,7.75-55.83,11.93-88.39,11.93-25.01,0-50.44-2.46-75.82-7.12l5.18-16.85h.06s8.01-24.91,8.01-24.91l2.07,26.96Zm-133.06-47.97c36.89,19.86,76.15,35.07,115.7,44.31l-5.25,17.07c-46.69-9.33-93.18-26-136.77-48.34l18.45-17.36,.11,.06,17.83-15.89-10.07,20.15h0Zm294.09,38.1c29.29-11.57,52.87-28.85,69.83-50.53h22.26c-21.74,30.73-54.92,54.41-97.56,68.32l-6.71-13.42-11.5-21.46,23.68,17.09Zm-327.85-28.95c-38.32-20.36-74.25-45.09-105.94-73.04h47.46c23.57,20.68,49.6,39.35,77.18,55.44l-18.7,17.6ZM99.27,168.27c-10.72,38.46-6.77,84,14.52,132.78,.37,.85,.75,1.71,1.14,2.57h-49.96c-1.87-3.85-3.64-7.71-5.33-11.58-25.86-59.26-27.8-114.15-9.95-159.01l52.66,25.53-.02,.04,28.12,13.81-31.17-4.16h0ZM186.98,25.96l51.51,56.42-34.14-18.21c-48.49,16.28-82.89,47.33-99.52,87.88l-52.43-25.42C74.55,77.4,121.36,41.17,186.98,25.96Zm198.15,11.04c55.99,16.38,110.49,42.79,158.79,76.25h-42.53c-36.79-21.23-76.26-37.85-116.26-48.44v-27.81h0Zm-18.53,23.34c-26.3-5.77-52.68-8.83-78.54-8.83-22.13,0-42.7,2.24-61.54,6.49l-30.94-33.89c19.91-3.96,41.44-6.04,64.45-6.04,38.69,0,78.36,5.89,117.38,16.77v44.97l-10.82-19.47h0Zm16.05,374.62l7.14-33.32h-13.48l-10.07,18.78-1.63-18.78h-13.38l-7.08,33.32h4.72l5.04-23.45,2.36,23.45h7.14l12.43-22.67-4.83,22.67h11.65Zm9.55-20.62c1.78-.87,3.61-1.51,5.48-1.91,1.87-.4,3.96-.6,6.27-.6s4.09,.17,5.56,.52c1.47,.35,2.64,.86,3.52,1.52,.87,.66,1.49,1.45,1.84,2.36,.35,.91,.52,1.94,.52,3.1,0,.66-.04,1.38-.13,2.15-.09,.77-.18,1.42-.29,1.94l-2.47,11.54h-8.45l-.94-3.36h-.31c-1.12,1.22-2.42,2.16-3.91,2.81s-2.96,.97-4.43,.97c-.84,0-1.66-.12-2.47-.37-.8-.24-1.52-.62-2.15-1.13-.63-.51-1.14-1.15-1.52-1.94-.38-.79-.58-1.74-.58-2.86,0-1.82,.5-3.26,1.5-4.33,1-1.07,2.31-1.87,3.94-2.41,1.63-.54,3.46-.88,5.51-1.02,2.05-.14,4.1-.21,6.17-.21,.07-.35,.16-.85,.26-1.5,.11-.65,.16-1.22,.16-1.71,0-.63-.17-1.22-.5-1.76-.33-.54-1.02-.81-2.07-.81-1.22,0-2.12,.36-2.7,1.08-.58,.72-.95,1.58-1.13,2.6h-7.66l1-4.67h0Zm12.07,9.23h-.94c-1.01,0-1.88,.13-2.6,.39-.72,.26-1.29,.6-1.73,1.02s-.76,.89-.97,1.42c-.21,.52-.31,1.05-.31,1.57,0,.84,.22,1.47,.66,1.89,.44,.42,.95,.63,1.55,.63,.73,0,1.46-.26,2.18-.79,.72-.52,1.16-1.22,1.34-2.1l.84-4.04Zm17.37-11.17l-4.77,22.56h10.7l3.36-15.69c.42-.52,.83-.87,1.23-1.02,.4-.16,.78-.24,1.13-.24,.7,0,1.21,.43,1.52,1.29,.31,.86,.51,2.37,.58,4.54h5.72l2.31-10.81c-.38-.28-.78-.5-1.18-.66-.4-.16-.79-.28-1.15-.37-.37-.09-.7-.14-1-.16s-.52-.03-.66-.03c-2.06,0-3.73,.44-4.98,1.31-1.26,.87-2.29,1.94-3.1,3.2h-.37l-.79-3.94h-8.55Zm34.05,9.55l4.72-22.25h-10.76l-7.45,35.26h10.7l2.2-10.55,5.35,10.55h11.75l-7.82-14.01,10.44-8.55h-6.93l-12.22,9.55h0Zm28.97,2.47c-.14,.77-.24,1.5-.29,2.2-.05,.7-.08,1.33-.08,1.89,0,.31,.02,.66,.05,1.05,.04,.39,.11,.74,.24,1.08,.12,.33,.3,.61,.52,.84,.23,.23,.55,.34,.97,.34,.31,0,.67-.1,1.08-.31,.4-.21,.8-.51,1.21-.89,.4-.39,.79-.86,1.15-1.42,.37-.56,.66-1.19,.87-1.89h8.6l-1.36,5.61c-.7,.45-1.5,.84-2.41,1.15-.91,.31-1.87,.57-2.89,.76-1.01,.19-2.05,.33-3.1,.42-1.05,.09-2.05,.13-2.99,.13-1.75,0-3.38-.16-4.88-.47-1.5-.31-2.82-.86-3.93-1.63-1.12-.77-2-1.79-2.65-3.07-.65-1.28-.97-2.86-.97-4.75,0-1.71,.27-3.39,.81-5.04,.54-1.64,1.45-3.1,2.73-4.38,1.28-1.28,2.99-2.3,5.14-3.07,2.15-.77,4.84-1.15,8.05-1.15,3.5,0,6.13,.54,7.9,1.63,1.77,1.08,2.65,2.78,2.65,5.09,0,.94-.14,1.97-.42,3.07-.28,1.1-.7,2.04-1.26,2.81h-14.74Zm6.98-6.24c0-1.08-.17-1.82-.52-2.2-.35-.38-.77-.58-1.26-.58-.56,0-1.08,.18-1.55,.55-.47,.37-.9,.86-1.29,1.47-.38,.61-.73,1.31-1.05,2.1-.31,.79-.58,1.62-.79,2.49h5.98c.07-.42,.14-.86,.21-1.31,.07-.38,.13-.8,.18-1.26,.05-.45,.08-.87,.08-1.26h0Zm24.35-2.41h-.31l-.94-3.36h-8.55l-4.77,22.56h10.7l3.46-16.32c.31-.31,.76-.7,1.34-1.15,.58-.45,1.18-.68,1.81-.68,.52,0,.92,.17,1.18,.5,.26,.33,.39,.76,.39,1.29,0,.39-.05,.81-.16,1.29s-.19,.94-.26,1.39l-2.89,13.69h10.65l2.2-10.23c.1-.56,.24-1.2,.39-1.91,.16-.72,.31-1.43,.45-2.13,.14-.7,.26-1.37,.37-2.02,.11-.65,.16-1.2,.16-1.65,0-1.61-.59-2.88-1.78-3.8-1.19-.93-2.69-1.39-4.51-1.39-1.33,0-2.54,.21-3.62,.63-1.08,.42-2.03,.87-2.83,1.36-.91,.59-1.73,1.24-2.47,1.94h0Zm43.23-3.93c4.16,0,7.19,.73,9.08,2.2,1.99,1.54,2.99,4.09,2.99,7.66,0,2.2-.37,4.19-1.1,5.96s-1.77,3.23-3.1,4.38c-2.66,2.24-6.51,3.36-11.54,3.36-4.3,0-7.38-.82-9.23-2.47-1.99-1.71-2.99-4.28-2.99-7.71,0-2.27,.46-4.34,1.39-6.19,.93-1.85,2.26-3.39,4.01-4.62,2.55-1.71,6.05-2.57,10.49-2.57h0Zm-3.57,19.99c.87,0,1.64-.49,2.28-1.47,.65-.98,1.16-2.18,1.55-3.59,.38-1.42,.67-2.89,.87-4.41,.19-1.52,.29-2.84,.29-3.96,0-.98-.1-1.72-.29-2.23-.19-.51-.6-.76-1.23-.76-.94,0-1.76,.51-2.44,1.52s-1.23,2.22-1.65,3.62-.73,2.83-.92,4.3c-.19,1.47-.29,2.66-.29,3.57,0,2.27,.61,3.41,1.84,3.41h0Zm19.03-19.41h4.04l.21-.89c.45-2.1,1.11-3.87,1.97-5.33,.86-1.45,1.9-2.63,3.12-3.54,1.22-.91,2.63-1.57,4.22-1.97,1.59-.4,3.35-.6,5.27-.6,1.47,0,2.92,.11,4.35,.31,1.43,.21,2.76,.51,3.99,.89,1.22-.87,2.58-1.5,4.07-1.89,1.49-.38,3.09-.58,4.8-.58,1.08,0,2.24,.07,3.46,.21,1.22,.14,2.52,.37,3.88,.68l-.89,4.2c-.77-.1-1.58-.18-2.44-.24-.86-.05-1.55-.08-2.07-.08-.7,0-1.31,.05-1.84,.16-.52,.1-.98,.31-1.36,.6-.38,.3-.72,.71-1,1.23-.28,.52-.51,1.22-.68,2.1l-1,4.72h5.51l-.68,3.52h-5.56l-4.04,19.05h-10.7l4.04-19.05h-6.66l-4.04,19.05h-10.65l3.99-19.05h-4.04l.73-3.52h0Zm14.74,0h6.66l.47-2.15c.21-.94,.46-1.83,.76-2.65,.3-.82,.64-1.58,1.02-2.28-1.22-.31-2.43-.47-3.62-.47-1.29,0-2.29,.27-2.99,.81-.7,.54-1.22,1.64-1.57,3.28l-.73,3.46h0Zm32.48,12.02c-.14,.77-.24,1.5-.29,2.2-.05,.7-.08,1.33-.08,1.89,0,.31,.02,.66,.05,1.05,.04,.39,.11,.74,.24,1.08,.12,.33,.3,.61,.52,.84,.23,.23,.55,.34,.97,.34,.31,0,.67-.1,1.08-.31s.8-.51,1.21-.89c.4-.39,.79-.86,1.15-1.42,.37-.56,.66-1.19,.87-1.89h8.6l-1.36,5.61c-.7,.45-1.5,.84-2.41,1.15-.91,.31-1.87,.57-2.89,.76-1.01,.19-2.05,.33-3.1,.42-1.05,.09-2.05,.13-2.99,.13-1.75,0-3.38-.16-4.88-.47-1.5-.31-2.82-.86-3.94-1.63-1.12-.77-2-1.79-2.65-3.07-.65-1.28-.97-2.86-.97-4.75,0-1.71,.27-3.39,.81-5.04,.54-1.64,1.45-3.1,2.73-4.38,1.28-1.28,2.99-2.3,5.14-3.07,2.15-.77,4.84-1.15,8.05-1.15,3.5,0,6.13,.54,7.9,1.63,1.77,1.08,2.65,2.78,2.65,5.09,0,.94-.14,1.97-.42,3.07-.28,1.1-.7,2.04-1.26,2.81h-14.74Zm6.98-6.24c0-1.08-.18-1.82-.52-2.2s-.77-.58-1.26-.58c-.56,0-1.08,.18-1.55,.55-.47,.37-.9,.86-1.29,1.47-.38,.61-.73,1.31-1.05,2.1-.31,.79-.58,1.62-.79,2.49h5.98c.07-.42,.14-.86,.21-1.31,.07-.38,.13-.8,.18-1.26,.05-.45,.08-.87,.08-1.26Zm24.34-2.41h-.31l-.94-3.36h-8.55l-4.77,22.56h10.7l3.46-16.32c.31-.31,.76-.7,1.34-1.15,.58-.45,1.18-.68,1.81-.68,.52,0,.92,.17,1.18,.5,.26,.33,.39,.76,.39,1.29,0,.39-.05,.81-.16,1.29-.1,.47-.19,.94-.26,1.39l-2.89,13.69h10.65l2.2-10.23c.1-.56,.24-1.2,.39-1.91,.16-.72,.31-1.43,.45-2.13,.14-.7,.26-1.37,.37-2.02,.1-.65,.16-1.2,.16-1.65,0-1.61-.59-2.88-1.78-3.8-1.19-.93-2.69-1.39-4.51-1.39-1.33,0-2.54,.21-3.62,.63-1.08,.42-2.03,.87-2.83,1.36-.91,.59-1.73,1.24-2.47,1.94h0Zm28.12,8.66c-.14,.77-.24,1.5-.29,2.2-.05,.7-.08,1.33-.08,1.89,0,.31,.02,.66,.05,1.05,.04,.39,.11,.74,.24,1.08,.12,.33,.3,.61,.52,.84s.55,.34,.97,.34c.31,0,.67-.1,1.08-.31s.8-.51,1.21-.89c.4-.39,.79-.86,1.15-1.42,.37-.56,.66-1.19,.87-1.89h8.6l-1.36,5.61c-.7,.45-1.5,.84-2.41,1.15-.91,.31-1.87,.57-2.89,.76-1.01,.19-2.05,.33-3.1,.42-1.05,.09-2.05,.13-2.99,.13-1.75,0-3.38-.16-4.88-.47-1.5-.31-2.82-.86-3.94-1.63-1.12-.77-2-1.79-2.65-3.07-.65-1.28-.97-2.86-.97-4.75,0-1.71,.27-3.39,.81-5.04,.54-1.64,1.45-3.1,2.73-4.38s2.99-2.3,5.14-3.07c2.15-.77,4.84-1.15,8.05-1.15,3.5,0,6.13,.54,7.9,1.63,1.77,1.08,2.65,2.78,2.65,5.09,0,.94-.14,1.97-.42,3.07-.28,1.1-.7,2.04-1.26,2.81h-14.74Zm6.98-6.24c0-1.08-.17-1.82-.52-2.2-.35-.38-.77-.58-1.26-.58-.56,0-1.08,.18-1.55,.55-.47,.37-.9,.86-1.29,1.47-.39,.61-.73,1.31-1.05,2.1-.31,.79-.58,1.62-.79,2.49h5.98c.07-.42,.14-.86,.21-1.31,.07-.38,.13-.8,.18-1.26,.05-.45,.08-.87,.08-1.26Zm14.53-5.77l-4.77,22.56h10.7l3.36-15.69c.42-.52,.83-.87,1.23-1.02s.78-.24,1.13-.24c.7,0,1.21,.43,1.52,1.29,.31,.86,.51,2.37,.58,4.54h5.72l2.31-10.81c-.38-.28-.78-.5-1.18-.66-.4-.16-.79-.28-1.15-.37-.37-.09-.7-.14-1-.16-.3-.02-.52-.03-.66-.03-2.06,0-3.73,.44-4.98,1.31-1.26,.87-2.29,1.94-3.1,3.2h-.37l-.79-3.94h-8.55Z"
        style="fill:#f40; fill-rule:evenodd;"/>
    <path
        d="M84.14,398.81h-20.2s78.29,67.86,122.93,90.52c0,0,139.38,71.24,236.85,58.69,0,0-75.53,9.18-182.65-43.73,0,0-54.67-24.91-125.74-78.55l-31.18-26.93h0ZM246.21,.06S-93.16-12.26,24.97,303.63h20.58s-55.62-114.97,0-203.23c0,0,26.97-50.09,79.75-72.03C125.3,28.36,197.33,.06,246.21,.06h0Zm313.85,306.14c-.77-.04-20.78-64.79-56.6-64.31,0,0-30.75-7-48.88,28.3,0,0,6.71-36.5,46.31-38.59,48.88-2.57,59.94,74.64,59.17,74.6h0Zm174.93-105.47c9.21,3.34,126.31,12.53,128.63,59.17,0,0-85.23,4.34-128.63,2.57,0,0-8.08-.95,0,10.29,0,0,22.13,23.34,18.01,23.15,0,0-98.38-1.47-126.06-10.29,0,0,47.61,15.45,118.34,15.44,0,0,107.26,3,126.06-5.14,0,0-1.01,10.16,2.57,10.29h5.15s2.46-19.08,0-33.44c0,0-3.49-18.34-7.72-25.73,0,0-18.01-28.3-64.31-41.16,0,0-36.02-7.72-51.45-7.72,0,0-29.79-.77-20.58,2.57h0Zm-144.06,46.31s19.89,34.24,36.02,36.02c0,0,107.43,11.5,115.77,7.72,0,0-17.41-14.05-18.01-20.58,0,0-4.17-7.18,7.72-12.86,0,0-92.16,.35-128.63-7.72l-12.86-2.57h0Zm-28.75-35.77c3.46,1.43,5.59,2.33,5.59,2.33-.7-.61-2.7-1.41-5.59-2.33-13.03-5.36-44.94-18.14-53.58-18.25,0,0,166.51-2,167.22-2.57,.71-.58-83.66-69.3-195.51-72.03-105.47-2.57-120.91,0-120.91,0,0,0-51.45,2.57-156.93,59.17,0,0-25.73,12.86-41.16,15.44,0,0-10.66,3.17,2.57,10.29,0,0-35.36,17.92-36.02,28.3,0,0-2.96,39.85,0,46.31l5.14,7.72s-2.54-44.23,0-48.88c2.54-4.65,25.73-28.3,36.02-28.3,8.3,0,21.16,.31,20.58,0-.58-.31,0-4.7,0-5.15s-18.99,1.03-18.01,0,0-5.15,0-5.15c0,0,9.2,.14,18.01-2.57s124.59-68.69,182.65-69.46c58.06-.77,186.27-2.19,213.52,20.58,0,0-27.98-10.66-59.17-10.29-31.19,.37-139.16-4.62-131.2,2.57,7.96,7.19,58.82,50.1,59.88,59.88,0,0,45.8,.45,45.6-.71-.17-.98,44.89,7.91,61.29,13.11h0Zm-418.88,56.35s9.62-15.29,28.3-15.44c18.67-.14,29.68,28.49,30.87,30.87,0,0-5.99-41.46-30.87-41.16-24.88,.3-28.3,25.73-28.3,25.73Zm105.47-61.74h120.91s-14.07-10.89-7.72-15.44c6.36-4.55,20.58-15.44,43.73-2.57,0,0,10.29,7.72,2.57,12.86,0,0,6.46,5.3,7.72,5.14,1.26-.15,23.15,0,23.15,0,0,0-47.02-64.19-66.89-64.31,0,0-19.66-5.82-38.59,0-18.93,5.82-90.01,32.21-90.04,41.16-.03,8.95-1.61,15.73,2.57,20.58l2.57,2.57h0Z"
        style="fill:#404040; fill-rule:evenodd;"/>
    <path
        d="M41.03,336.85h-12.33l-9.11,42.79H3.06l9.11-42.79H0l1.38-5.82H42.33l-1.3,5.82Zm48.84-5.82h-16.69l-4.52,21.13h-9.34l4.52-21.13h-16.61l-10.33,48.61h16.54l4.59-21.66h9.42l-4.59,21.66h16.54l10.49-48.61Zm18.45,31.23l6.74-31.23h-17.38l-4.67,21.74c-.71,3.22-1.3,6.2-1.76,8.96-.46,2.76-.69,5.03-.69,6.81,0,3.98,1.4,6.93,4.21,8.84,2.81,1.91,7.14,2.87,13.01,2.87,4.24,0,7.78-.47,10.64-1.42,2.86-.94,5.19-2.23,7-3.87,1.81-1.63,3.2-3.52,4.17-5.67s1.71-4.44,2.22-6.89l6.66-31.39h-6.97l-6.51,31.23c-.31,1.48-.68,2.88-1.11,4.21s-1.02,2.5-1.76,3.52c-.74,1.02-1.68,1.84-2.83,2.45s-2.62,.92-4.4,.92c-2.45,0-4.3-.54-5.55-1.61-1.25-1.07-1.88-2.5-1.88-4.29,0-.71,.08-1.48,.23-2.3,.15-.82,.36-1.79,.61-2.91h0Zm6.58-46.54c-2.04,0-3.6,.65-4.67,1.95-1.07,1.3-1.61,2.77-1.61,4.4,0,1.48,.43,2.74,1.3,3.79,.87,1.05,2.25,1.57,4.13,1.57,2.04,0,3.59-.65,4.63-1.95,1.05-1.3,1.57-2.77,1.57-4.4,0-1.48-.43-2.74-1.3-3.79-.87-1.05-2.22-1.57-4.06-1.57h0Zm16.23,0c-2.04,0-3.6,.65-4.67,1.95-1.07,1.3-1.61,2.77-1.61,4.4,0,1.48,.43,2.74,1.3,3.79,.87,1.05,2.25,1.57,4.13,1.57,2.04,0,3.6-.65,4.67-1.95,1.07-1.3,1.61-2.77,1.61-4.4,0-1.48-.43-2.74-1.3-3.79-.87-1.05-2.25-1.57-4.13-1.57h0Zm52.67,26.87c0-2.45-.46-4.43-1.38-5.93-.92-1.51-2.16-2.68-3.71-3.52s-3.38-1.4-5.47-1.68c-2.09-.28-4.31-.42-6.66-.42h-20.13l-10.33,48.61h16.54l4.52-21.21h.84l6.74,21.21h17.07l-8.88-22.89c3.88-1.33,6.66-3.27,8.34-5.82,1.68-2.55,2.53-5.33,2.53-8.34h0Zm-22.05,10.95h-3.6l3.83-17.3h3.44c1.53,0,2.53,.47,2.99,1.42,.46,.94,.69,2.08,.69,3.41,0,1.07-.13,2.33-.38,3.79-.26,1.45-.68,2.82-1.26,4.1-.59,1.28-1.35,2.36-2.3,3.25-.94,.89-2.08,1.34-3.41,1.34h0Zm49.76-22.51h-16.61l-10.33,48.61h16.54l10.41-48.61Zm38.81,48.61l10.49-48.61h-7.04l-7.58,35.6-8.04-35.6h-18.3l-10.33,48.61h6.89l7.5-35.14,8.5,35.14h17.91Zm35.67-22.2l-1.15,5.13h6.43c-.82,4.29-2.02,7.35-3.6,9.19-1.58,1.84-3.22,2.76-4.9,2.76-1.02,0-1.8-.27-2.33-.8-.54-.54-.94-1.17-1.22-1.91-.28-.74-.45-1.49-.5-2.26-.05-.77-.08-1.4-.08-1.91,0-1.68,.11-3.66,.34-5.93,.23-2.27,.56-4.59,1-6.97,.43-2.37,.97-4.71,1.61-7,.64-2.3,1.39-4.35,2.26-6.16,.87-1.81,1.85-3.27,2.95-4.36,1.1-1.1,2.31-1.65,3.64-1.65,.77,0,1.35,.17,1.76,.5s.71,.75,.92,1.26c.2,.51,.33,1.03,.38,1.57,.05,.54,.08,1.01,.08,1.42,0,.61-.03,1.33-.08,2.14-.05,.82-.1,1.65-.15,2.49-.05,.84-.13,1.65-.23,2.41-.1,.77-.18,1.43-.23,1.99h12.94l2.91-14.85c-2.5-1.07-5.15-2.04-7.96-2.91-2.81-.87-6.1-1.3-9.88-1.3-4.9,0-9.19,.79-12.86,2.37-3.67,1.58-6.74,3.74-9.19,6.47-2.45,2.73-4.29,5.88-5.51,9.45-1.22,3.57-1.84,7.35-1.84,11.33,0,3.67,.48,6.81,1.45,9.42,.97,2.6,2.26,4.71,3.87,6.32,1.61,1.61,3.44,2.78,5.51,3.52,2.07,.74,4.22,1.11,6.47,1.11,2.91,0,5.27-.54,7.08-1.61,1.81-1.07,3.38-2.37,4.71-3.9h.31l1.45,4.9h9.03l4.44-22.2h-19.83Zm32.31-26.41l-10.33,48.61h32.23l1.15-5.89h-15.62l3.52-16.38h13.09l1.22-5.74h-13.09l3.22-14.77h15.62l1.22-5.82h-32.23Zm75.86,11.56c0-2.45-.46-4.43-1.38-5.93-.92-1.51-2.16-2.68-3.71-3.52s-3.38-1.4-5.47-1.68c-2.09-.28-4.31-.42-6.66-.42h-20.13l-10.33,48.61h16.54l4.52-21.21h.84l6.74,21.21h17.07l-8.88-22.89c3.88-1.33,6.66-3.27,8.34-5.82,1.68-2.55,2.53-5.33,2.53-8.34h0Zm-22.05,10.95h-3.6l3.83-17.3h3.44c1.53,0,2.53,.47,2.99,1.42,.46,.94,.69,2.08,.69,3.41,0,1.07-.13,2.33-.38,3.79-.26,1.45-.68,2.82-1.26,4.1-.59,1.28-1.35,2.36-2.3,3.25-.94,.89-2.08,1.34-3.41,1.34h0Zm82.45-22.5h-40.96l-1.38,5.82h12.17l-9.11,42.79h16.54l9.11-42.79h12.32l1.3-5.82Zm15,31.23l6.74-31.23h-17.38l-4.67,21.74c-.71,3.22-1.3,6.2-1.76,8.96-.46,2.76-.69,5.03-.69,6.81,0,3.98,1.4,6.93,4.21,8.84,2.81,1.91,7.14,2.87,13.01,2.87,4.24,0,7.78-.47,10.64-1.42,2.86-.94,5.19-2.23,7-3.87,1.81-1.63,3.2-3.52,4.17-5.67,.97-2.14,1.71-4.44,2.22-6.89l6.66-31.39h-6.97l-6.51,31.23c-.31,1.48-.68,2.88-1.11,4.21-.43,1.33-1.02,2.5-1.76,3.52-.74,1.02-1.68,1.84-2.83,2.45-1.15,.61-2.62,.92-4.4,.92-2.45,0-4.3-.54-5.55-1.61-1.25-1.07-1.88-2.5-1.88-4.29,0-.71,.08-1.48,.23-2.3,.15-.82,.36-1.79,.61-2.91h0Zm68.59,17.38l10.49-48.61h-7.04l-7.58,35.6-8.04-35.6h-18.3l-10.33,48.61h6.89l7.5-35.14,8.5,35.14h17.91Zm25.03,0l10.41-48.61h-16.61l-10.33,48.61h16.54Zm49.22,0l10.49-48.61h-7.04l-7.58,35.6-8.04-35.6h-18.3l-10.33,48.61h6.89l7.5-35.14,8.5,35.14h17.91Zm35.67-22.2l-1.15,5.13h6.43c-.82,4.29-2.02,7.35-3.6,9.19-1.58,1.84-3.22,2.76-4.9,2.76-1.02,0-1.8-.27-2.33-.8-.54-.54-.94-1.17-1.23-1.91-.28-.74-.45-1.49-.5-2.26-.05-.77-.08-1.4-.08-1.91,0-1.68,.11-3.66,.34-5.93,.23-2.27,.56-4.59,1-6.97,.43-2.37,.97-4.71,1.61-7,.64-2.3,1.39-4.35,2.26-6.16,.87-1.81,1.85-3.27,2.95-4.36,1.1-1.1,2.31-1.65,3.64-1.65,.77,0,1.35,.17,1.76,.5,.41,.33,.71,.75,.92,1.26s.33,1.03,.38,1.57c.05,.54,.08,1.01,.08,1.42,0,.61-.03,1.33-.08,2.14-.05,.82-.1,1.65-.15,2.49-.05,.84-.13,1.65-.23,2.41-.1,.77-.18,1.43-.23,1.99h12.94l2.91-14.85c-2.5-1.07-5.15-2.04-7.96-2.91-2.81-.87-6.1-1.3-9.88-1.3-4.9,0-9.19,.79-12.86,2.37-3.67,1.58-6.74,3.74-9.19,6.47-2.45,2.73-4.29,5.88-5.51,9.45-1.22,3.57-1.84,7.35-1.84,11.33,0,3.67,.48,6.81,1.45,9.42,.97,2.6,2.26,4.71,3.87,6.32,1.61,1.61,3.44,2.78,5.51,3.52,2.07,.74,4.22,1.11,6.47,1.11,2.91,0,5.27-.54,7.08-1.61,1.81-1.07,3.38-2.37,4.71-3.9h.31l1.45,4.9h9.03l4.44-22.2h-19.83Zm46.93-26.41l-10.33,48.61h16.54l4.9-22.89h13.09l1.22-5.89h-13.09l2.99-14.01h15.69l1.22-5.82h-32.23Zm73.57,5.62c-.92-1.51-2.16-2.68-3.71-3.52s-3.38-1.4-5.47-1.68-4.31-.42-6.66-.42h-20.13l-10.33,48.61h16.54l4.52-21.21h.84l6.74,21.21h17.07l-8.88-22.89c3.88-1.33,6.66-3.27,8.34-5.82,1.68-2.55,2.53-5.33,2.53-8.34,0-2.45-.46-4.43-1.38-5.93Zm-20.67,16.88h-3.6l3.83-17.3h3.44c1.53,0,2.53,.47,2.99,1.42,.46,.94,.69,2.08,.69,3.41,0,1.07-.13,2.33-.38,3.79-.26,1.45-.68,2.82-1.26,4.1-.59,1.28-1.35,2.36-2.3,3.25-.94,.89-2.08,1.34-3.41,1.34h0Zm22.81,26.11h32.23l1.15-5.89h-15.62l3.52-16.38h13.09l1.22-5.74h-13.09l3.22-14.77h15.62l1.22-5.82h-32.23l-10.33,48.61Zm58.94-17.38l6.74-31.23h-17.38l-4.67,21.74c-.71,3.22-1.3,6.2-1.76,8.96-.46,2.76-.69,5.03-.69,6.81,0,3.98,1.4,6.93,4.21,8.84,2.81,1.91,7.14,2.87,13.01,2.87,4.24,0,7.78-.47,10.64-1.42,2.86-.94,5.19-2.23,7-3.87,1.81-1.63,3.2-3.52,4.17-5.67,.97-2.14,1.71-4.44,2.22-6.89l6.66-31.39h-6.97l-6.51,31.23c-.31,1.48-.68,2.88-1.11,4.21s-1.02,2.5-1.76,3.52c-.74,1.02-1.68,1.84-2.83,2.45-1.15,.61-2.62,.92-4.4,.92-2.45,0-4.3-.54-5.55-1.61-1.25-1.07-1.88-2.5-1.88-4.29,0-.71,.08-1.48,.23-2.3,.15-.82,.36-1.79,.61-2.91h0Zm68.59,17.38l10.49-48.61h-7.04l-7.58,35.6-8.04-35.6h-18.3l-10.33,48.61h6.89l7.5-35.14,8.5,35.14h17.91Zm8.5,0h21.97c5.21,0,9.58-.85,13.13-2.56,3.55-1.71,6.42-3.97,8.61-6.77,2.19-2.81,3.76-6,4.71-9.57,.94-3.57,1.42-7.22,1.42-10.95,0-3.47-.4-6.41-1.19-8.8-.79-2.4-1.96-4.34-3.52-5.82s-3.52-2.54-5.89-3.18c-2.37-.64-5.14-.96-8.31-.96h-20.59l-10.33,48.61h0Zm20.98-5.36h-3.29l8.19-38.05h3.67c1.58,0,2.69,.45,3.33,1.34s.96,2.13,.96,3.71c0,.82-.09,2.19-.27,4.13-.18,1.94-.46,4.13-.84,6.58-.38,2.45-.89,4.99-1.53,7.62-.64,2.63-1.43,5.03-2.37,7.2-.94,2.17-2.07,3.96-3.37,5.36-1.3,1.4-2.79,2.11-4.48,2.11h0Zm29.7,5.36h32.23l1.15-5.89h-15.62l3.52-16.38h13.09l1.22-5.74h-13.09l3.22-14.77h15.62l1.22-5.82h-32.23l-10.33,48.61Zm-192.86,25.99l.89-3.99h-28.07l-.94,3.99h8.34l-6.24,29.33h11.33l6.24-29.33h8.45Zm10.91,23.08c-.31,.38-.75,.79-1.31,1.21-.56,.42-1.15,.63-1.78,.63-.59,0-1.01-.18-1.23-.55-.23-.37-.34-.81-.34-1.34,0-.21,.03-.48,.08-.81,.05-.33,.11-.68,.18-1.05,.07-.37,.14-.74,.21-1.13,.07-.38,.14-.72,.21-1l2.62-12.28h-10.65l-2.2,10.23c-.24,1.15-.52,2.39-.81,3.7-.3,1.31-.45,2.4-.45,3.28,0,1.71,.59,3.1,1.78,4.17,1.19,1.07,2.83,1.6,4.93,1.6,1.57,0,3.14-.36,4.7-1.08,1.56-.72,2.79-1.62,3.7-2.7h.31l.94,3.36h8.5l4.83-22.56h-10.7l-3.52,16.32Zm28.7-12.96h-.31l-.94-3.36h-8.55l-4.77,22.56h10.7l3.46-16.32c.31-.31,.76-.7,1.34-1.15,.58-.45,1.18-.68,1.81-.68,.52,0,.92,.17,1.18,.5,.26,.33,.39,.76,.39,1.29,0,.39-.05,.81-.16,1.29-.1,.47-.19,.94-.26,1.39l-2.89,13.69h10.65l2.2-10.23c.1-.56,.24-1.2,.39-1.91,.16-.72,.31-1.43,.45-2.13,.14-.7,.26-1.37,.37-2.02,.11-.65,.16-1.2,.16-1.65,0-1.61-.59-2.88-1.78-3.8-1.19-.93-2.69-1.39-4.51-1.39-1.33,0-2.54,.21-3.62,.63-1.08,.42-2.03,.87-2.83,1.36-.91,.59-1.73,1.24-2.47,1.94h0Zm26.81,19.2l4.88-22.56h-10.76l-4.77,22.56h10.65Zm4.83-32.53c-.94-.66-2.1-1-3.46-1-.77,0-1.51,.11-2.23,.31-.72,.21-1.35,.52-1.89,.92-.54,.4-.97,.91-1.29,1.52-.31,.61-.47,1.3-.47,2.07,0,1.43,.47,2.48,1.42,3.15,.94,.66,2.12,1,3.52,1,.73,0,1.45-.1,2.15-.31,.7-.21,1.32-.52,1.86-.94s.98-.93,1.31-1.52c.33-.59,.5-1.29,.5-2.1,0-1.4-.47-2.43-1.42-3.1Zm14.48,13.33h-.31l-.94-3.36h-8.55l-4.77,22.56h10.7l3.46-16.32c.31-.31,.76-.7,1.34-1.15,.58-.45,1.18-.68,1.81-.68,.52,0,.92,.17,1.18,.5,.26,.33,.39,.76,.39,1.29,0,.39-.05,.81-.16,1.29-.11,.47-.19,.94-.26,1.39l-2.89,13.69h10.65l2.2-10.23c.11-.56,.24-1.2,.39-1.91,.16-.72,.31-1.43,.45-2.13,.14-.7,.26-1.37,.37-2.02,.11-.65,.16-1.2,.16-1.65,0-1.61-.59-2.88-1.78-3.8-1.19-.93-2.69-1.39-4.51-1.39-1.33,0-2.54,.21-3.62,.63-1.08,.42-2.03,.87-2.83,1.36-.91,.59-1.73,1.24-2.47,1.94h0Zm38.09-3.36l-2.36,3.41h-.31c-.28-.84-.66-1.52-1.15-2.05-.49-.52-1.05-.93-1.68-1.21-.63-.28-1.28-.47-1.94-.58s-1.28-.16-1.84-.16c-1.82,0-3.37,.33-4.64,1-1.28,.66-2.34,1.5-3.2,2.52s-1.54,2.14-2.05,3.38c-.51,1.24-.89,2.46-1.15,3.65-.26,1.19-.43,2.26-.5,3.2-.07,.94-.1,1.64-.1,2.1,0,1.05,.12,2.02,.37,2.91s.63,1.66,1.15,2.31c.52,.65,1.22,1.15,2.07,1.52,.86,.37,1.9,.55,3.12,.55,1.08,0,2.05-.13,2.91-.39,.86-.26,1.6-.59,2.23-1,.63-.4,1.15-.82,1.55-1.26s.71-.81,.92-1.13h.37l-.63,3.41c-.17,1.01-.41,1.87-.71,2.57-.3,.7-.68,1.26-1.15,1.68-.47,.42-1.07,.73-1.78,.92s-1.6,.29-2.65,.29c-.84,0-1.85,0-3.02-.03-1.17-.02-2.32-.11-3.44-.29l-1,3.78c.42,.04,.98,.07,1.68,.11,.7,.03,1.43,.06,2.2,.08,.77,.02,1.52,.04,2.26,.05s1.36,.03,1.89,.03c2.83,0,5.24-.28,7.21-.84,1.98-.56,3.62-1.33,4.93-2.31s2.34-2.13,3.07-3.46c.73-1.33,1.26-2.78,1.57-4.35l4.3-20.41h-8.5Zm-5.88,4.56c.52,0,.97,.19,1.34,.58,.37,.38,.69,.77,.97,1.15l-1.94,9.18c-.11,.14-.27,.33-.5,.58-.23,.24-.49,.48-.79,.71-.3,.23-.61,.43-.94,.6-.33,.18-.67,.26-1.02,.26-.59,0-1.01-.24-1.23-.71-.23-.47-.34-1.06-.34-1.76,0-.56,.08-1.43,.24-2.6,.16-1.17,.41-2.35,.76-3.54,.35-1.19,.8-2.23,1.36-3.12,.56-.89,1.26-1.34,2.1-1.34h0Zm38.09,16.74l1.52-7.4h-7.5c-.21,.98-.51,1.82-.89,2.52-.39,.7-.79,1.27-1.21,1.71s-.86,.76-1.31,.97-.86,.31-1.21,.31c-.38,0-.68-.1-.89-.31-.21-.21-.38-.49-.5-.84-.12-.35-.2-.73-.24-1.13-.04-.4-.05-.8-.05-1.18,0-1.05,.11-2.32,.34-3.8,.23-1.49,.58-2.9,1.05-4.25s1.08-2.5,1.81-3.46c.73-.96,1.59-1.44,2.57-1.44,.56,0,.96,.24,1.21,.71,.24,.47,.37,1.27,.37,2.39,0,.56-.02,1.07-.05,1.52s-.07,.98-.1,1.57h7.14l1.47-6.72c-1.08-1.29-2.47-2.12-4.14-2.49-1.68-.37-3.66-.55-5.93-.55-2.8,0-5.21,.35-7.24,1.05s-3.7,1.66-5.01,2.89c-1.31,1.22-2.29,2.65-2.94,4.28-.65,1.63-.97,3.38-.97,5.27s.31,3.37,.94,4.64c.63,1.28,1.5,2.32,2.62,3.12,1.12,.8,2.44,1.39,3.96,1.76,1.52,.37,3.19,.55,5.01,.55,2.06,0,3.91-.13,5.54-.39,1.63-.26,3.17-.69,4.64-1.29h0Zm21.72-34h-10.76l-7.45,35.26h10.7l7.5-35.26Zm13.75,29.01c-.31,.38-.75,.79-1.31,1.21-.56,.42-1.15,.63-1.78,.63-.59,0-1.01-.18-1.23-.55-.23-.37-.34-.81-.34-1.34,0-.21,.03-.48,.08-.81,.05-.33,.11-.68,.18-1.05,.07-.37,.14-.74,.21-1.13s.14-.72,.21-1l2.62-12.28h-10.65l-2.2,10.23c-.24,1.15-.52,2.39-.81,3.7-.3,1.31-.45,2.4-.45,3.28,0,1.71,.59,3.1,1.78,4.17,1.19,1.07,2.83,1.6,4.93,1.6,1.57,0,3.14-.36,4.7-1.08,1.56-.72,2.79-1.62,3.7-2.7h.31l.94,3.36h8.5l4.83-22.56h-10.7l-3.52,16.32Zm22.61,6.24l2.36-3.41h.37c.24,.49,.64,.97,1.18,1.44,.54,.47,1.17,.88,1.89,1.23,.72,.35,1.52,.63,2.41,.84s1.81,.31,2.75,.31c1.57,0,2.93-.33,4.07-1,1.14-.66,2.08-1.52,2.83-2.57,.75-1.05,1.36-2.21,1.81-3.49,.45-1.28,.8-2.52,1.05-3.73,.24-1.21,.4-2.3,.47-3.28,.07-.98,.11-1.71,.11-2.2,0-.98-.11-1.91-.31-2.78-.21-.87-.56-1.63-1.05-2.26-.49-.63-1.15-1.13-1.97-1.5-.82-.37-1.85-.55-3.07-.55-1.43,0-2.88,.29-4.33,.87-1.45,.58-2.75,1.53-3.91,2.86h-.37l3.41-16.06h-10.76l-7.45,35.26h8.5Zm5.93-4.67c-.56,0-1.04-.19-1.44-.58-.4-.39-.73-.79-.97-1.21l2.05-9.39c.28-.35,.72-.78,1.31-1.29,.59-.51,1.24-.76,1.94-.76,.59,0,1.01,.23,1.23,.68s.34,1.03,.34,1.73c0,.59-.08,1.5-.24,2.7-.16,1.21-.41,2.41-.76,3.62-.35,1.21-.8,2.26-1.36,3.15-.56,.89-1.26,1.34-2.1,1.34h0Z"
        style="fill:#7cf12e;"/>
</svg>
